<mxfile host="app.diagrams.net" modified="2021-04-12T12:35:26.081Z" agent="5.0 (Windows NT 10.0; Win64; x64) AppleWebKit/537.36 (KHTML, like Gecko) Chrome/89.0.4389.114 Safari/537.36" etag="iNCPwuB7puyVnF6nwxbu" version="14.5.10" type="github">
  <diagram id="R2lEEEUBdFMjLlhIrx00" name="Page-1">
    <mxGraphModel dx="1630" dy="2244" grid="1" gridSize="10" guides="1" tooltips="1" connect="1" arrows="1" fold="1" page="1" pageScale="1" pageWidth="850" pageHeight="1100" math="0" shadow="0" extFonts="Permanent Marker^https://fonts.googleapis.com/css?family=Permanent+Marker">
      <root>
        <mxCell id="0" />
        <mxCell id="1" parent="0" />
        <mxCell id="_CHvoFrD6mSaw10JFjYY-32" value="1" style="rounded=0;orthogonalLoop=1;jettySize=auto;html=1;endArrow=none;endFill=0;" parent="1" source="_CHvoFrD6mSaw10JFjYY-2" target="_CHvoFrD6mSaw10JFjYY-12" edge="1">
          <mxGeometry relative="1" as="geometry" />
        </mxCell>
        <mxCell id="YfYcxpr3XRQJxf8hliLk-14" style="edgeStyle=orthogonalEdgeStyle;curved=1;rounded=0;orthogonalLoop=1;jettySize=auto;html=1;exitX=0.25;exitY=0;exitDx=0;exitDy=0;entryX=1;entryY=0.5;entryDx=0;entryDy=0;endArrow=none;endFill=0;" parent="1" source="_CHvoFrD6mSaw10JFjYY-2" target="YfYcxpr3XRQJxf8hliLk-13" edge="1">
          <mxGeometry relative="1" as="geometry" />
        </mxCell>
        <mxCell id="_CHvoFrD6mSaw10JFjYY-2" value="&lt;div&gt;Customer&lt;/div&gt;" style="rounded=0;whiteSpace=wrap;html=1;" parent="1" vertex="1">
          <mxGeometry x="-300" y="190" width="120" height="60" as="geometry" />
        </mxCell>
        <mxCell id="_CHvoFrD6mSaw10JFjYY-5" value="1" style="edgeStyle=orthogonalEdgeStyle;rounded=0;orthogonalLoop=1;jettySize=auto;html=1;exitX=1;exitY=0.5;exitDx=0;exitDy=0;entryX=0;entryY=0.5;entryDx=0;entryDy=0;endArrow=none;endFill=0;" parent="1" source="_CHvoFrD6mSaw10JFjYY-3" target="_CHvoFrD6mSaw10JFjYY-4" edge="1">
          <mxGeometry relative="1" as="geometry" />
        </mxCell>
        <mxCell id="YfYcxpr3XRQJxf8hliLk-45" value="M" style="edgeStyle=orthogonalEdgeStyle;curved=1;rounded=0;orthogonalLoop=1;jettySize=auto;html=1;endArrow=none;endFill=0;shape=link;" parent="1" source="_CHvoFrD6mSaw10JFjYY-3" target="_CHvoFrD6mSaw10JFjYY-2" edge="1">
          <mxGeometry relative="1" as="geometry" />
        </mxCell>
        <mxCell id="_CHvoFrD6mSaw10JFjYY-3" value="Lives in" style="rhombus;whiteSpace=wrap;html=1;" parent="1" vertex="1">
          <mxGeometry x="-130" y="180" width="80" height="80" as="geometry" />
        </mxCell>
        <mxCell id="_CHvoFrD6mSaw10JFjYY-4" value="&lt;div&gt;Address&lt;/div&gt;" style="rounded=0;whiteSpace=wrap;html=1;" parent="1" vertex="1">
          <mxGeometry x="-20" y="190" width="120" height="60" as="geometry" />
        </mxCell>
        <mxCell id="_CHvoFrD6mSaw10JFjYY-8" value="areacode" style="ellipse;whiteSpace=wrap;html=1;" parent="1" vertex="1">
          <mxGeometry x="-15" y="500" width="110" height="60" as="geometry" />
        </mxCell>
        <mxCell id="YfYcxpr3XRQJxf8hliLk-12" style="edgeStyle=orthogonalEdgeStyle;curved=1;rounded=0;orthogonalLoop=1;jettySize=auto;html=1;exitX=0.5;exitY=1;exitDx=0;exitDy=0;entryX=0.5;entryY=0;entryDx=0;entryDy=0;endArrow=none;endFill=0;" parent="1" source="_CHvoFrD6mSaw10JFjYY-9" target="_CHvoFrD6mSaw10JFjYY-4" edge="1">
          <mxGeometry relative="1" as="geometry" />
        </mxCell>
        <mxCell id="_CHvoFrD6mSaw10JFjYY-9" value="Address" style="ellipse;whiteSpace=wrap;html=1;" parent="1" vertex="1">
          <mxGeometry x="-10" y="90" width="100" height="40" as="geometry" />
        </mxCell>
        <mxCell id="_CHvoFrD6mSaw10JFjYY-50" value="&lt;div&gt;1&lt;/div&gt;" style="edgeStyle=orthogonalEdgeStyle;rounded=0;orthogonalLoop=1;jettySize=auto;html=1;endArrow=none;endFill=0;shape=link;" parent="1" source="_CHvoFrD6mSaw10JFjYY-11" target="_CHvoFrD6mSaw10JFjYY-47" edge="1">
          <mxGeometry relative="1" as="geometry" />
        </mxCell>
        <mxCell id="YfYcxpr3XRQJxf8hliLk-24" style="edgeStyle=orthogonalEdgeStyle;curved=1;rounded=0;orthogonalLoop=1;jettySize=auto;html=1;exitX=1;exitY=0.5;exitDx=0;exitDy=0;entryX=0;entryY=0.5;entryDx=0;entryDy=0;endArrow=none;endFill=0;" parent="1" source="_CHvoFrD6mSaw10JFjYY-11" target="YfYcxpr3XRQJxf8hliLk-23" edge="1">
          <mxGeometry relative="1" as="geometry" />
        </mxCell>
        <mxCell id="YfYcxpr3XRQJxf8hliLk-32" style="edgeStyle=orthogonalEdgeStyle;curved=1;rounded=0;orthogonalLoop=1;jettySize=auto;html=1;exitX=1;exitY=0.25;exitDx=0;exitDy=0;entryX=0;entryY=0.5;entryDx=0;entryDy=0;endArrow=none;endFill=0;" parent="1" source="_CHvoFrD6mSaw10JFjYY-11" target="YfYcxpr3XRQJxf8hliLk-30" edge="1">
          <mxGeometry relative="1" as="geometry" />
        </mxCell>
        <mxCell id="YfYcxpr3XRQJxf8hliLk-35" value="1" style="edgeLabel;html=1;align=center;verticalAlign=middle;resizable=0;points=[];" parent="YfYcxpr3XRQJxf8hliLk-32" vertex="1" connectable="0">
          <mxGeometry x="-0.35" y="3" relative="1" as="geometry">
            <mxPoint as="offset" />
          </mxGeometry>
        </mxCell>
        <mxCell id="aeDUMQC0GTFIOUEkBriZ-28" style="rounded=0;orthogonalLoop=1;jettySize=auto;html=1;exitX=0.75;exitY=1;exitDx=0;exitDy=0;entryX=0.5;entryY=0;entryDx=0;entryDy=0;startArrow=none;startFill=0;endArrow=none;endFill=0;shape=link;" parent="1" source="_CHvoFrD6mSaw10JFjYY-11" target="YfYcxpr3XRQJxf8hliLk-21" edge="1">
          <mxGeometry relative="1" as="geometry" />
        </mxCell>
        <mxCell id="aeDUMQC0GTFIOUEkBriZ-29" value="N" style="edgeLabel;html=1;align=center;verticalAlign=middle;resizable=0;points=[];" parent="aeDUMQC0GTFIOUEkBriZ-28" vertex="1" connectable="0">
          <mxGeometry x="-0.2128" y="-1" relative="1" as="geometry">
            <mxPoint as="offset" />
          </mxGeometry>
        </mxCell>
        <mxCell id="U7rDwr9C1dg0-C28zRSU-3" style="edgeStyle=orthogonalEdgeStyle;rounded=0;orthogonalLoop=1;jettySize=auto;html=1;exitX=0;exitY=1;exitDx=0;exitDy=0;entryX=1;entryY=0.5;entryDx=0;entryDy=0;curved=1;endArrow=none;endFill=0;" parent="1" source="_CHvoFrD6mSaw10JFjYY-11" target="U7rDwr9C1dg0-C28zRSU-1" edge="1">
          <mxGeometry relative="1" as="geometry">
            <Array as="points">
              <mxPoint x="-350" y="765" />
              <mxPoint x="-350" y="810" />
              <mxPoint x="-430" y="810" />
            </Array>
          </mxGeometry>
        </mxCell>
        <mxCell id="_CHvoFrD6mSaw10JFjYY-11" value="Product" style="rounded=0;whiteSpace=wrap;html=1;" parent="1" vertex="1">
          <mxGeometry x="-300" y="705" width="120" height="60" as="geometry" />
        </mxCell>
        <mxCell id="_CHvoFrD6mSaw10JFjYY-33" value="N" style="rounded=0;orthogonalLoop=1;jettySize=auto;html=1;endArrow=none;endFill=0;shape=link;entryX=0.5;entryY=0;entryDx=0;entryDy=0;exitX=0.5;exitY=1;exitDx=0;exitDy=0;" parent="1" source="_CHvoFrD6mSaw10JFjYY-12" target="_CHvoFrD6mSaw10JFjYY-29" edge="1">
          <mxGeometry relative="1" as="geometry" />
        </mxCell>
        <mxCell id="_CHvoFrD6mSaw10JFjYY-12" value="puts" style="rhombus;whiteSpace=wrap;html=1;" parent="1" vertex="1">
          <mxGeometry x="-280" y="310" width="80" height="80" as="geometry" />
        </mxCell>
        <mxCell id="aeDUMQC0GTFIOUEkBriZ-22" value="" style="edgeStyle=orthogonalEdgeStyle;curved=1;rounded=0;orthogonalLoop=1;jettySize=auto;html=1;startArrow=none;startFill=0;endArrow=none;endFill=0;entryX=0;entryY=0.25;entryDx=0;entryDy=0;" parent="1" source="_CHvoFrD6mSaw10JFjYY-14" target="_CHvoFrD6mSaw10JFjYY-11" edge="1">
          <mxGeometry relative="1" as="geometry" />
        </mxCell>
        <mxCell id="_CHvoFrD6mSaw10JFjYY-14" value="inventory" style="ellipse;whiteSpace=wrap;html=1;" parent="1" vertex="1">
          <mxGeometry x="-490" y="620" width="90" height="55" as="geometry" />
        </mxCell>
        <mxCell id="_CHvoFrD6mSaw10JFjYY-26" style="edgeStyle=orthogonalEdgeStyle;rounded=0;orthogonalLoop=1;jettySize=auto;html=1;exitX=1;exitY=0.5;exitDx=0;exitDy=0;endArrow=none;endFill=0;curved=1;entryX=0;entryY=0.5;entryDx=0;entryDy=0;" parent="1" source="_CHvoFrD6mSaw10JFjYY-15" target="_CHvoFrD6mSaw10JFjYY-11" edge="1">
          <mxGeometry relative="1" as="geometry">
            <mxPoint x="-285" y="765" as="targetPoint" />
          </mxGeometry>
        </mxCell>
        <mxCell id="_CHvoFrD6mSaw10JFjYY-15" value="title" style="ellipse;whiteSpace=wrap;html=1;" parent="1" vertex="1">
          <mxGeometry x="-530" y="680" width="90" height="60" as="geometry" />
        </mxCell>
        <mxCell id="_CHvoFrD6mSaw10JFjYY-58" style="edgeStyle=orthogonalEdgeStyle;rounded=0;orthogonalLoop=1;jettySize=auto;html=1;endArrow=none;endFill=0;entryX=0.75;entryY=0;entryDx=0;entryDy=0;curved=1;" parent="1" source="_CHvoFrD6mSaw10JFjYY-17" target="_CHvoFrD6mSaw10JFjYY-11" edge="1">
          <mxGeometry relative="1" as="geometry">
            <mxPoint x="-190" y="700" as="targetPoint" />
          </mxGeometry>
        </mxCell>
        <mxCell id="_CHvoFrD6mSaw10JFjYY-17" value="description" style="ellipse;whiteSpace=wrap;html=1;" parent="1" vertex="1">
          <mxGeometry x="-160" y="630" width="90" height="50" as="geometry" />
        </mxCell>
        <mxCell id="YfYcxpr3XRQJxf8hliLk-34" value="" style="edgeStyle=orthogonalEdgeStyle;curved=1;rounded=0;orthogonalLoop=1;jettySize=auto;html=1;endArrow=none;endFill=0;" parent="1" source="_CHvoFrD6mSaw10JFjYY-19" target="YfYcxpr3XRQJxf8hliLk-31" edge="1">
          <mxGeometry relative="1" as="geometry" />
        </mxCell>
        <mxCell id="_CHvoFrD6mSaw10JFjYY-19" value="Image? / Link to image?" style="ellipse;whiteSpace=wrap;html=1;" parent="1" vertex="1">
          <mxGeometry x="95" y="765" width="90" height="60" as="geometry" />
        </mxCell>
        <mxCell id="_CHvoFrD6mSaw10JFjYY-28" style="edgeStyle=orthogonalEdgeStyle;rounded=0;orthogonalLoop=1;jettySize=auto;html=1;exitX=1;exitY=0.5;exitDx=0;exitDy=0;endArrow=none;endFill=0;curved=1;entryX=0.25;entryY=0;entryDx=0;entryDy=0;" parent="1" source="_CHvoFrD6mSaw10JFjYY-20" target="_CHvoFrD6mSaw10JFjYY-11" edge="1">
          <mxGeometry relative="1" as="geometry">
            <mxPoint x="-310" y="660" as="targetPoint" />
          </mxGeometry>
        </mxCell>
        <mxCell id="_CHvoFrD6mSaw10JFjYY-20" value="&lt;div&gt;price&lt;/div&gt;" style="ellipse;whiteSpace=wrap;html=1;" parent="1" vertex="1">
          <mxGeometry x="-420" y="574" width="85" height="51" as="geometry" />
        </mxCell>
        <mxCell id="_CHvoFrD6mSaw10JFjYY-49" value="N" style="edgeStyle=orthogonalEdgeStyle;rounded=0;orthogonalLoop=1;jettySize=auto;html=1;endArrow=none;endFill=0;shape=link;" parent="1" source="_CHvoFrD6mSaw10JFjYY-29" target="_CHvoFrD6mSaw10JFjYY-47" edge="1">
          <mxGeometry relative="1" as="geometry" />
        </mxCell>
        <mxCell id="YfYcxpr3XRQJxf8hliLk-17" value="1" style="edgeStyle=orthogonalEdgeStyle;curved=1;rounded=0;orthogonalLoop=1;jettySize=auto;html=1;exitX=0;exitY=0.5;exitDx=0;exitDy=0;entryX=1;entryY=0.5;entryDx=0;entryDy=0;endArrow=none;endFill=0;shape=link;" parent="1" source="_CHvoFrD6mSaw10JFjYY-29" target="YfYcxpr3XRQJxf8hliLk-16" edge="1">
          <mxGeometry relative="1" as="geometry" />
        </mxCell>
        <mxCell id="_CHvoFrD6mSaw10JFjYY-29" value="Order" style="rounded=0;whiteSpace=wrap;html=1;" parent="1" vertex="1">
          <mxGeometry x="-300" y="430" width="120" height="60" as="geometry" />
        </mxCell>
        <mxCell id="_CHvoFrD6mSaw10JFjYY-44" value="" style="edgeStyle=orthogonalEdgeStyle;rounded=0;orthogonalLoop=1;jettySize=auto;html=1;endArrow=none;endFill=0;" parent="1" source="_CHvoFrD6mSaw10JFjYY-35" target="_CHvoFrD6mSaw10JFjYY-29" edge="1">
          <mxGeometry relative="1" as="geometry" />
        </mxCell>
        <mxCell id="_CHvoFrD6mSaw10JFjYY-35" value="Order-date" style="ellipse;whiteSpace=wrap;html=1;" parent="1" vertex="1">
          <mxGeometry x="-150" y="430" width="100" height="60" as="geometry" />
        </mxCell>
        <mxCell id="_CHvoFrD6mSaw10JFjYY-48" value="" style="edgeStyle=orthogonalEdgeStyle;rounded=0;orthogonalLoop=1;jettySize=auto;html=1;endArrow=none;endFill=0;" parent="1" source="_CHvoFrD6mSaw10JFjYY-36" target="_CHvoFrD6mSaw10JFjYY-47" edge="1">
          <mxGeometry relative="1" as="geometry" />
        </mxCell>
        <mxCell id="_CHvoFrD6mSaw10JFjYY-36" value="product-amount" style="ellipse;whiteSpace=wrap;html=1;" parent="1" vertex="1">
          <mxGeometry x="-150" y="540" width="100" height="60" as="geometry" />
        </mxCell>
        <mxCell id="_CHvoFrD6mSaw10JFjYY-47" value="contains" style="rhombus;whiteSpace=wrap;html=1;" parent="1" vertex="1">
          <mxGeometry x="-280" y="530" width="80" height="80" as="geometry" />
        </mxCell>
        <mxCell id="_CHvoFrD6mSaw10JFjYY-53" value="category" style="rounded=0;whiteSpace=wrap;html=1;" parent="1" vertex="1">
          <mxGeometry x="-390" y="990" width="120" height="60" as="geometry" />
        </mxCell>
        <mxCell id="_CHvoFrD6mSaw10JFjYY-59" value="1" style="edgeStyle=orthogonalEdgeStyle;rounded=0;orthogonalLoop=1;jettySize=auto;html=1;endArrow=none;endFill=0;curved=1;" parent="1" source="_CHvoFrD6mSaw10JFjYY-56" target="_CHvoFrD6mSaw10JFjYY-53" edge="1">
          <mxGeometry relative="1" as="geometry" />
        </mxCell>
        <mxCell id="_CHvoFrD6mSaw10JFjYY-60" value="N" style="edgeStyle=orthogonalEdgeStyle;rounded=0;orthogonalLoop=1;jettySize=auto;html=1;exitX=0.5;exitY=0;exitDx=0;exitDy=0;endArrow=none;endFill=0;entryX=0.5;entryY=1;entryDx=0;entryDy=0;curved=1;" parent="1" source="_CHvoFrD6mSaw10JFjYY-56" target="_CHvoFrD6mSaw10JFjYY-11" edge="1">
          <mxGeometry relative="1" as="geometry">
            <mxPoint x="-240" y="770" as="targetPoint" />
          </mxGeometry>
        </mxCell>
        <mxCell id="_CHvoFrD6mSaw10JFjYY-56" value="belongs&lt;br&gt;to" style="rhombus;whiteSpace=wrap;html=1;" parent="1" vertex="1">
          <mxGeometry x="-320" y="855" width="80" height="80" as="geometry" />
        </mxCell>
        <mxCell id="_CHvoFrD6mSaw10JFjYY-66" value="" style="edgeStyle=orthogonalEdgeStyle;rounded=0;orthogonalLoop=1;jettySize=auto;html=1;endArrow=none;endFill=0;curved=1;" parent="1" source="_CHvoFrD6mSaw10JFjYY-61" target="_CHvoFrD6mSaw10JFjYY-64" edge="1">
          <mxGeometry relative="1" as="geometry" />
        </mxCell>
        <mxCell id="aeDUMQC0GTFIOUEkBriZ-26" style="edgeStyle=orthogonalEdgeStyle;curved=1;rounded=0;orthogonalLoop=1;jettySize=auto;html=1;exitX=0.5;exitY=0;exitDx=0;exitDy=0;startArrow=none;startFill=0;endArrow=none;endFill=0;dashed=1;" parent="1" source="_CHvoFrD6mSaw10JFjYY-61" target="aeDUMQC0GTFIOUEkBriZ-23" edge="1">
          <mxGeometry relative="1" as="geometry" />
        </mxCell>
        <mxCell id="_CHvoFrD6mSaw10JFjYY-61" value="unit" style="ellipse;whiteSpace=wrap;html=1;" parent="1" vertex="1">
          <mxGeometry x="-90" y="990" width="90" height="60" as="geometry" />
        </mxCell>
        <mxCell id="_CHvoFrD6mSaw10JFjYY-64" value="unit" style="rounded=0;whiteSpace=wrap;html=1;" parent="1" vertex="1">
          <mxGeometry x="-250" y="990" width="120" height="60" as="geometry" />
        </mxCell>
        <mxCell id="YfYcxpr3XRQJxf8hliLk-2" style="edgeStyle=orthogonalEdgeStyle;curved=1;rounded=0;orthogonalLoop=1;jettySize=auto;html=1;exitX=1;exitY=0.5;exitDx=0;exitDy=0;entryX=0;entryY=0;entryDx=0;entryDy=0;endArrow=none;endFill=0;" parent="1" source="YfYcxpr3XRQJxf8hliLk-1" target="_CHvoFrD6mSaw10JFjYY-2" edge="1">
          <mxGeometry relative="1" as="geometry" />
        </mxCell>
        <mxCell id="YfYcxpr3XRQJxf8hliLk-1" value="Phone" style="ellipse;whiteSpace=wrap;html=1;" parent="1" vertex="1">
          <mxGeometry x="-500" y="110" width="100" height="60" as="geometry" />
        </mxCell>
        <mxCell id="YfYcxpr3XRQJxf8hliLk-4" style="edgeStyle=orthogonalEdgeStyle;curved=1;rounded=0;orthogonalLoop=1;jettySize=auto;html=1;exitX=1;exitY=0.5;exitDx=0;exitDy=0;entryX=0;entryY=0.25;entryDx=0;entryDy=0;endArrow=none;endFill=0;" parent="1" source="YfYcxpr3XRQJxf8hliLk-3" target="_CHvoFrD6mSaw10JFjYY-2" edge="1">
          <mxGeometry relative="1" as="geometry" />
        </mxCell>
        <mxCell id="YfYcxpr3XRQJxf8hliLk-3" value="email" style="ellipse;whiteSpace=wrap;html=1;" parent="1" vertex="1">
          <mxGeometry x="-515" y="180" width="90" height="60" as="geometry" />
        </mxCell>
        <mxCell id="YfYcxpr3XRQJxf8hliLk-6" style="edgeStyle=orthogonalEdgeStyle;curved=1;rounded=0;orthogonalLoop=1;jettySize=auto;html=1;exitX=1;exitY=0.5;exitDx=0;exitDy=0;entryX=0;entryY=0.75;entryDx=0;entryDy=0;endArrow=none;endFill=0;" parent="1" source="YfYcxpr3XRQJxf8hliLk-5" target="_CHvoFrD6mSaw10JFjYY-2" edge="1">
          <mxGeometry relative="1" as="geometry" />
        </mxCell>
        <mxCell id="YfYcxpr3XRQJxf8hliLk-5" value="firstname" style="ellipse;whiteSpace=wrap;html=1;" parent="1" vertex="1">
          <mxGeometry x="-510" y="250" width="90" height="60" as="geometry" />
        </mxCell>
        <mxCell id="YfYcxpr3XRQJxf8hliLk-41" value="" style="edgeStyle=orthogonalEdgeStyle;curved=1;rounded=0;orthogonalLoop=1;jettySize=auto;html=1;endArrow=none;endFill=0;" parent="1" source="YfYcxpr3XRQJxf8hliLk-7" target="_CHvoFrD6mSaw10JFjYY-8" edge="1">
          <mxGeometry relative="1" as="geometry" />
        </mxCell>
        <mxCell id="YfYcxpr3XRQJxf8hliLk-43" value="N" style="edgeStyle=orthogonalEdgeStyle;curved=1;rounded=0;orthogonalLoop=1;jettySize=auto;html=1;exitX=1;exitY=0.5;exitDx=0;exitDy=0;entryX=0;entryY=0.5;entryDx=0;entryDy=0;endArrow=none;endFill=0;shape=link;" parent="1" source="YfYcxpr3XRQJxf8hliLk-7" target="YfYcxpr3XRQJxf8hliLk-42" edge="1">
          <mxGeometry relative="1" as="geometry" />
        </mxCell>
        <mxCell id="YfYcxpr3XRQJxf8hliLk-7" value="areacode" style="rounded=0;whiteSpace=wrap;html=1;" parent="1" vertex="1">
          <mxGeometry x="-20" y="400" width="120" height="60" as="geometry" />
        </mxCell>
        <mxCell id="YfYcxpr3XRQJxf8hliLk-10" value="1" style="edgeStyle=orthogonalEdgeStyle;curved=1;rounded=0;orthogonalLoop=1;jettySize=auto;html=1;endArrow=none;endFill=0;" parent="1" source="YfYcxpr3XRQJxf8hliLk-9" target="YfYcxpr3XRQJxf8hliLk-7" edge="1">
          <mxGeometry relative="1" as="geometry" />
        </mxCell>
        <mxCell id="YfYcxpr3XRQJxf8hliLk-11" value="N" style="edgeStyle=orthogonalEdgeStyle;curved=1;rounded=0;orthogonalLoop=1;jettySize=auto;html=1;endArrow=none;endFill=0;shape=link;" parent="1" source="YfYcxpr3XRQJxf8hliLk-9" target="_CHvoFrD6mSaw10JFjYY-4" edge="1">
          <mxGeometry relative="1" as="geometry" />
        </mxCell>
        <mxCell id="YfYcxpr3XRQJxf8hliLk-9" value="Tillhör" style="rhombus;whiteSpace=wrap;html=1;" parent="1" vertex="1">
          <mxGeometry y="290" width="80" height="80" as="geometry" />
        </mxCell>
        <mxCell id="YfYcxpr3XRQJxf8hliLk-13" value="passwordHash" style="ellipse;whiteSpace=wrap;html=1;" parent="1" vertex="1">
          <mxGeometry x="-410" y="40" width="95" height="60" as="geometry" />
        </mxCell>
        <mxCell id="YfYcxpr3XRQJxf8hliLk-15" value="OrderStatus" style="rounded=0;whiteSpace=wrap;html=1;" parent="1" vertex="1">
          <mxGeometry x="-600" y="430" width="120" height="60" as="geometry" />
        </mxCell>
        <mxCell id="YfYcxpr3XRQJxf8hliLk-18" value="1" style="edgeStyle=orthogonalEdgeStyle;curved=1;rounded=0;orthogonalLoop=1;jettySize=auto;html=1;exitX=0;exitY=0.5;exitDx=0;exitDy=0;entryX=1;entryY=0.5;entryDx=0;entryDy=0;endArrow=none;endFill=0;" parent="1" source="YfYcxpr3XRQJxf8hliLk-16" target="YfYcxpr3XRQJxf8hliLk-15" edge="1">
          <mxGeometry relative="1" as="geometry" />
        </mxCell>
        <mxCell id="YfYcxpr3XRQJxf8hliLk-16" value="in current&lt;br&gt;state" style="rhombus;whiteSpace=wrap;html=1;" parent="1" vertex="1">
          <mxGeometry x="-430" y="420" width="80" height="80" as="geometry" />
        </mxCell>
        <mxCell id="YfYcxpr3XRQJxf8hliLk-20" style="edgeStyle=orthogonalEdgeStyle;curved=1;rounded=0;orthogonalLoop=1;jettySize=auto;html=1;exitX=0.5;exitY=1;exitDx=0;exitDy=0;entryX=0.5;entryY=0;entryDx=0;entryDy=0;endArrow=none;endFill=0;" parent="1" source="YfYcxpr3XRQJxf8hliLk-19" target="YfYcxpr3XRQJxf8hliLk-15" edge="1">
          <mxGeometry relative="1" as="geometry" />
        </mxCell>
        <mxCell id="YfYcxpr3XRQJxf8hliLk-19" value="orderStatus" style="ellipse;whiteSpace=wrap;html=1;" parent="1" vertex="1">
          <mxGeometry x="-585" y="350" width="90" height="60" as="geometry" />
        </mxCell>
        <mxCell id="YfYcxpr3XRQJxf8hliLk-22" value="1" style="edgeStyle=orthogonalEdgeStyle;curved=1;rounded=0;orthogonalLoop=1;jettySize=auto;html=1;exitX=0.5;exitY=1;exitDx=0;exitDy=0;endArrow=none;endFill=0;entryX=0.5;entryY=0;entryDx=0;entryDy=0;" parent="1" source="YfYcxpr3XRQJxf8hliLk-21" target="_CHvoFrD6mSaw10JFjYY-64" edge="1">
          <mxGeometry x="0.3488" y="-12" relative="1" as="geometry">
            <mxPoint x="-20" y="860" as="targetPoint" />
            <mxPoint y="1" as="offset" />
          </mxGeometry>
        </mxCell>
        <mxCell id="YfYcxpr3XRQJxf8hliLk-21" value="measured&lt;br&gt;in" style="rhombus;whiteSpace=wrap;html=1;" parent="1" vertex="1">
          <mxGeometry x="-230" y="845" width="80" height="80" as="geometry" />
        </mxCell>
        <mxCell id="aeDUMQC0GTFIOUEkBriZ-25" style="edgeStyle=orthogonalEdgeStyle;curved=1;rounded=0;orthogonalLoop=1;jettySize=auto;html=1;exitX=1;exitY=0.75;exitDx=0;exitDy=0;entryX=0;entryY=0.5;entryDx=0;entryDy=0;startArrow=none;startFill=0;endArrow=none;endFill=0;" parent="1" source="_CHvoFrD6mSaw10JFjYY-11" target="aeDUMQC0GTFIOUEkBriZ-23" edge="1">
          <mxGeometry relative="1" as="geometry" />
        </mxCell>
        <mxCell id="YfYcxpr3XRQJxf8hliLk-23" value="size" style="ellipse;whiteSpace=wrap;html=1;" parent="1" vertex="1">
          <mxGeometry x="-80" y="745" width="80" height="50" as="geometry" />
        </mxCell>
        <mxCell id="YfYcxpr3XRQJxf8hliLk-29" style="edgeStyle=orthogonalEdgeStyle;curved=1;rounded=0;orthogonalLoop=1;jettySize=auto;html=1;exitX=0;exitY=0.5;exitDx=0;exitDy=0;entryX=0.5;entryY=0;entryDx=0;entryDy=0;endArrow=none;endFill=0;" parent="1" source="YfYcxpr3XRQJxf8hliLk-28" target="_CHvoFrD6mSaw10JFjYY-2" edge="1">
          <mxGeometry relative="1" as="geometry" />
        </mxCell>
        <mxCell id="YfYcxpr3XRQJxf8hliLk-28" value="Admin-status" style="ellipse;whiteSpace=wrap;html=1;" parent="1" vertex="1">
          <mxGeometry x="-217.5" y="30" width="87.5" height="50" as="geometry" />
        </mxCell>
        <mxCell id="YfYcxpr3XRQJxf8hliLk-30" value="has" style="rhombus;whiteSpace=wrap;html=1;" parent="1" vertex="1">
          <mxGeometry x="-50" y="650" width="80" height="80" as="geometry" />
        </mxCell>
        <mxCell id="YfYcxpr3XRQJxf8hliLk-33" value="N" style="edgeStyle=orthogonalEdgeStyle;curved=1;rounded=0;orthogonalLoop=1;jettySize=auto;html=1;endArrow=none;endFill=0;" parent="1" source="YfYcxpr3XRQJxf8hliLk-31" target="YfYcxpr3XRQJxf8hliLk-30" edge="1">
          <mxGeometry relative="1" as="geometry">
            <Array as="points">
              <mxPoint x="50" y="690" />
              <mxPoint x="50" y="690" />
            </Array>
          </mxGeometry>
        </mxCell>
        <mxCell id="YfYcxpr3XRQJxf8hliLk-31" value="Image" style="rounded=0;whiteSpace=wrap;html=1;" parent="1" vertex="1">
          <mxGeometry x="80" y="660" width="120" height="60" as="geometry" />
        </mxCell>
        <mxCell id="YfYcxpr3XRQJxf8hliLk-38" value="city" style="rounded=0;whiteSpace=wrap;html=1;" parent="1" vertex="1">
          <mxGeometry x="230" y="510" width="120" height="60" as="geometry" />
        </mxCell>
        <mxCell id="aeDUMQC0GTFIOUEkBriZ-6" value="" style="edgeStyle=orthogonalEdgeStyle;curved=1;rounded=0;orthogonalLoop=1;jettySize=auto;html=1;startArrow=none;startFill=0;endArrow=none;endFill=0;" parent="1" source="YfYcxpr3XRQJxf8hliLk-39" target="YfYcxpr3XRQJxf8hliLk-38" edge="1">
          <mxGeometry relative="1" as="geometry" />
        </mxCell>
        <mxCell id="YfYcxpr3XRQJxf8hliLk-39" value="city" style="ellipse;whiteSpace=wrap;html=1;" parent="1" vertex="1">
          <mxGeometry x="240" y="615" width="100" height="45" as="geometry" />
        </mxCell>
        <mxCell id="YfYcxpr3XRQJxf8hliLk-44" value="1" style="edgeStyle=orthogonalEdgeStyle;curved=1;rounded=0;orthogonalLoop=1;jettySize=auto;html=1;exitX=1;exitY=0.5;exitDx=0;exitDy=0;entryX=0.5;entryY=0;entryDx=0;entryDy=0;endArrow=none;endFill=0;" parent="1" source="YfYcxpr3XRQJxf8hliLk-42" target="YfYcxpr3XRQJxf8hliLk-38" edge="1">
          <mxGeometry relative="1" as="geometry">
            <Array as="points">
              <mxPoint x="260" y="430" />
              <mxPoint x="260" y="470" />
              <mxPoint x="290" y="470" />
            </Array>
          </mxGeometry>
        </mxCell>
        <mxCell id="YfYcxpr3XRQJxf8hliLk-42" value="in" style="rhombus;whiteSpace=wrap;html=1;" parent="1" vertex="1">
          <mxGeometry x="150" y="390" width="80" height="80" as="geometry" />
        </mxCell>
        <mxCell id="aeDUMQC0GTFIOUEkBriZ-1" value="&lt;font style=&quot;font-size: 45px&quot;&gt;&lt;b&gt;HAKIM LIVS&lt;br&gt;&lt;/b&gt;ER-Diagram&lt;/font&gt;" style="text;html=1;align=center;verticalAlign=middle;resizable=0;points=[];autosize=1;" parent="1" vertex="1">
          <mxGeometry x="-377.5" y="-160" width="280" height="60" as="geometry" />
        </mxCell>
        <mxCell id="aeDUMQC0GTFIOUEkBriZ-2" value="ID implicit på samtliga entiteter" style="text;html=1;align=center;verticalAlign=middle;resizable=0;points=[];autosize=1;" parent="1" vertex="1">
          <mxGeometry x="-330" y="-50" width="180" height="20" as="geometry" />
        </mxCell>
        <mxCell id="aeDUMQC0GTFIOUEkBriZ-8" value="1" style="edgeStyle=orthogonalEdgeStyle;curved=1;rounded=0;orthogonalLoop=1;jettySize=auto;html=1;startArrow=none;startFill=0;endArrow=none;endFill=0;exitX=0.5;exitY=1;exitDx=0;exitDy=0;" parent="1" source="aeDUMQC0GTFIOUEkBriZ-16" target="aeDUMQC0GTFIOUEkBriZ-7" edge="1">
          <mxGeometry relative="1" as="geometry" />
        </mxCell>
        <mxCell id="aeDUMQC0GTFIOUEkBriZ-3" value="Content" style="rounded=0;whiteSpace=wrap;html=1;" parent="1" vertex="1">
          <mxGeometry x="450" y="60" width="120" height="60" as="geometry" />
        </mxCell>
        <mxCell id="aeDUMQC0GTFIOUEkBriZ-9" value="1" style="edgeStyle=orthogonalEdgeStyle;curved=1;rounded=0;orthogonalLoop=1;jettySize=auto;html=1;startArrow=none;startFill=0;endArrow=none;endFill=0;" parent="1" source="aeDUMQC0GTFIOUEkBriZ-7" target="_CHvoFrD6mSaw10JFjYY-4" edge="1">
          <mxGeometry relative="1" as="geometry" />
        </mxCell>
        <mxCell id="aeDUMQC0GTFIOUEkBriZ-7" value="Finns på" style="rhombus;whiteSpace=wrap;html=1;" parent="1" vertex="1">
          <mxGeometry x="170" y="180" width="80" height="80" as="geometry" />
        </mxCell>
        <mxCell id="aeDUMQC0GTFIOUEkBriZ-11" style="edgeStyle=orthogonalEdgeStyle;curved=1;rounded=0;orthogonalLoop=1;jettySize=auto;html=1;exitX=0;exitY=0.5;exitDx=0;exitDy=0;entryX=0.75;entryY=0;entryDx=0;entryDy=0;startArrow=none;startFill=0;endArrow=none;endFill=0;" parent="1" source="aeDUMQC0GTFIOUEkBriZ-10" target="_CHvoFrD6mSaw10JFjYY-2" edge="1">
          <mxGeometry relative="1" as="geometry" />
        </mxCell>
        <mxCell id="aeDUMQC0GTFIOUEkBriZ-10" value="LoyalCustomer" style="ellipse;whiteSpace=wrap;html=1;" parent="1" vertex="1">
          <mxGeometry x="-170" y="100" width="110" height="60" as="geometry" />
        </mxCell>
        <mxCell id="aeDUMQC0GTFIOUEkBriZ-14" style="edgeStyle=orthogonalEdgeStyle;curved=1;rounded=0;orthogonalLoop=1;jettySize=auto;html=1;entryX=0.5;entryY=0;entryDx=0;entryDy=0;startArrow=none;startFill=0;endArrow=none;endFill=0;" parent="1" source="aeDUMQC0GTFIOUEkBriZ-13" target="aeDUMQC0GTFIOUEkBriZ-3" edge="1">
          <mxGeometry relative="1" as="geometry" />
        </mxCell>
        <mxCell id="aeDUMQC0GTFIOUEkBriZ-13" value="Krav för att bli&lt;br&gt;&quot;Trogen Kund&quot;" style="ellipse;whiteSpace=wrap;html=1;" parent="1" vertex="1">
          <mxGeometry x="450" y="-100" width="120" height="80" as="geometry" />
        </mxCell>
        <mxCell id="aeDUMQC0GTFIOUEkBriZ-18" value="N" style="edgeStyle=orthogonalEdgeStyle;curved=1;rounded=0;orthogonalLoop=1;jettySize=auto;html=1;exitX=1;exitY=0.5;exitDx=0;exitDy=0;entryX=0;entryY=0.5;entryDx=0;entryDy=0;startArrow=none;startFill=0;endArrow=none;endFill=0;" parent="1" source="aeDUMQC0GTFIOUEkBriZ-16" target="aeDUMQC0GTFIOUEkBriZ-17" edge="1">
          <mxGeometry relative="1" as="geometry" />
        </mxCell>
        <mxCell id="aeDUMQC0GTFIOUEkBriZ-16" value="Store" style="rounded=0;whiteSpace=wrap;html=1;" parent="1" vertex="1">
          <mxGeometry x="150" y="60" width="120" height="60" as="geometry" />
        </mxCell>
        <mxCell id="aeDUMQC0GTFIOUEkBriZ-19" value="1" style="edgeStyle=orthogonalEdgeStyle;curved=1;rounded=0;orthogonalLoop=1;jettySize=auto;html=1;exitX=1;exitY=0.5;exitDx=0;exitDy=0;entryX=0;entryY=0.5;entryDx=0;entryDy=0;startArrow=none;startFill=0;endArrow=none;endFill=0;" parent="1" source="aeDUMQC0GTFIOUEkBriZ-17" target="aeDUMQC0GTFIOUEkBriZ-3" edge="1">
          <mxGeometry relative="1" as="geometry" />
        </mxCell>
        <mxCell id="aeDUMQC0GTFIOUEkBriZ-17" value="Tillhör" style="rhombus;whiteSpace=wrap;html=1;" parent="1" vertex="1">
          <mxGeometry x="320" y="50" width="80" height="80" as="geometry" />
        </mxCell>
        <mxCell id="aeDUMQC0GTFIOUEkBriZ-21" style="edgeStyle=orthogonalEdgeStyle;curved=1;rounded=0;orthogonalLoop=1;jettySize=auto;html=1;exitX=1;exitY=0.5;exitDx=0;exitDy=0;entryX=0.25;entryY=0;entryDx=0;entryDy=0;startArrow=none;startFill=0;endArrow=none;endFill=0;" parent="1" source="aeDUMQC0GTFIOUEkBriZ-20" target="aeDUMQC0GTFIOUEkBriZ-16" edge="1">
          <mxGeometry relative="1" as="geometry" />
        </mxCell>
        <mxCell id="aeDUMQC0GTFIOUEkBriZ-20" value="Phone" style="ellipse;whiteSpace=wrap;html=1;" parent="1" vertex="1">
          <mxGeometry x="30" width="80" height="50" as="geometry" />
        </mxCell>
        <mxCell id="aeDUMQC0GTFIOUEkBriZ-27" style="edgeStyle=orthogonalEdgeStyle;curved=1;rounded=0;orthogonalLoop=1;jettySize=auto;html=1;exitX=0.5;exitY=0;exitDx=0;exitDy=0;entryX=0.5;entryY=1;entryDx=0;entryDy=0;dashed=1;startArrow=none;startFill=0;endArrow=none;endFill=0;" parent="1" source="aeDUMQC0GTFIOUEkBriZ-23" target="YfYcxpr3XRQJxf8hliLk-23" edge="1">
          <mxGeometry relative="1" as="geometry" />
        </mxCell>
        <mxCell id="aeDUMQC0GTFIOUEkBriZ-23" value="comparative price" style="ellipse;whiteSpace=wrap;html=1;dashed=1;" parent="1" vertex="1">
          <mxGeometry x="-77" y="885" width="77.5" height="50" as="geometry" />
        </mxCell>
        <mxCell id="aeDUMQC0GTFIOUEkBriZ-31" style="edgeStyle=orthogonalEdgeStyle;rounded=0;orthogonalLoop=1;jettySize=auto;html=1;exitX=1;exitY=0.5;exitDx=0;exitDy=0;entryX=0.5;entryY=0;entryDx=0;entryDy=0;startArrow=none;startFill=0;endArrow=none;endFill=0;curved=1;" parent="1" source="aeDUMQC0GTFIOUEkBriZ-30" target="aeDUMQC0GTFIOUEkBriZ-16" edge="1">
          <mxGeometry relative="1" as="geometry" />
        </mxCell>
        <mxCell id="aeDUMQC0GTFIOUEkBriZ-30" value="email" style="ellipse;whiteSpace=wrap;html=1;" parent="1" vertex="1">
          <mxGeometry x="70" y="-50" width="80" height="40" as="geometry" />
        </mxCell>
        <mxCell id="aeDUMQC0GTFIOUEkBriZ-33" style="edgeStyle=orthogonalEdgeStyle;curved=1;rounded=0;orthogonalLoop=1;jettySize=auto;html=1;exitX=0;exitY=0.5;exitDx=0;exitDy=0;entryX=0.75;entryY=0;entryDx=0;entryDy=0;startArrow=none;startFill=0;endArrow=none;endFill=0;" parent="1" source="aeDUMQC0GTFIOUEkBriZ-32" target="aeDUMQC0GTFIOUEkBriZ-16" edge="1">
          <mxGeometry relative="1" as="geometry" />
        </mxCell>
        <mxCell id="aeDUMQC0GTFIOUEkBriZ-32" value="open hours" style="ellipse;whiteSpace=wrap;html=1;" parent="1" vertex="1">
          <mxGeometry x="260" y="-40" width="100" height="40" as="geometry" />
        </mxCell>
        <mxCell id="MvFeTqcAGGcagMa9E8rT-1" value="brand" style="rounded=0;whiteSpace=wrap;html=1;" parent="1" vertex="1">
          <mxGeometry x="-530" y="980" width="120" height="60" as="geometry" />
        </mxCell>
        <mxCell id="MvFeTqcAGGcagMa9E8rT-3" style="edgeStyle=orthogonalEdgeStyle;rounded=0;orthogonalLoop=1;jettySize=auto;html=1;exitX=0.5;exitY=0;exitDx=0;exitDy=0;entryX=0.5;entryY=1;entryDx=0;entryDy=0;curved=1;endArrow=none;endFill=0;" parent="1" source="MvFeTqcAGGcagMa9E8rT-2" target="MvFeTqcAGGcagMa9E8rT-1" edge="1">
          <mxGeometry relative="1" as="geometry" />
        </mxCell>
        <mxCell id="MvFeTqcAGGcagMa9E8rT-2" value="brand" style="ellipse;whiteSpace=wrap;html=1;" parent="1" vertex="1">
          <mxGeometry x="-510" y="1100" width="80" height="50" as="geometry" />
        </mxCell>
        <mxCell id="MvFeTqcAGGcagMa9E8rT-5" value="" style="edgeStyle=orthogonalEdgeStyle;curved=1;rounded=0;orthogonalLoop=1;jettySize=auto;html=1;endArrow=none;endFill=0;" parent="1" source="MvFeTqcAGGcagMa9E8rT-4" target="_CHvoFrD6mSaw10JFjYY-53" edge="1">
          <mxGeometry relative="1" as="geometry" />
        </mxCell>
        <mxCell id="MvFeTqcAGGcagMa9E8rT-4" value="category" style="ellipse;whiteSpace=wrap;html=1;" parent="1" vertex="1">
          <mxGeometry x="-377.5" y="1105" width="87.5" height="50" as="geometry" />
        </mxCell>
        <mxCell id="MvFeTqcAGGcagMa9E8rT-7" value="N" style="edgeStyle=orthogonalEdgeStyle;curved=1;rounded=0;orthogonalLoop=1;jettySize=auto;html=1;exitX=0.5;exitY=0;exitDx=0;exitDy=0;entryX=0.308;entryY=0.983;entryDx=0;entryDy=0;endArrow=none;endFill=0;entryPerimeter=0;" parent="1" source="MvFeTqcAGGcagMa9E8rT-6" target="_CHvoFrD6mSaw10JFjYY-11" edge="1">
          <mxGeometry relative="1" as="geometry" />
        </mxCell>
        <mxCell id="MvFeTqcAGGcagMa9E8rT-8" value="1" style="edgeStyle=orthogonalEdgeStyle;curved=1;rounded=0;orthogonalLoop=1;jettySize=auto;html=1;exitX=0.5;exitY=1;exitDx=0;exitDy=0;entryX=0.5;entryY=0;entryDx=0;entryDy=0;endArrow=none;endFill=0;" parent="1" source="MvFeTqcAGGcagMa9E8rT-6" target="MvFeTqcAGGcagMa9E8rT-1" edge="1">
          <mxGeometry relative="1" as="geometry" />
        </mxCell>
        <mxCell id="MvFeTqcAGGcagMa9E8rT-6" value="made&lt;br&gt;by" style="rhombus;whiteSpace=wrap;html=1;" parent="1" vertex="1">
          <mxGeometry x="-420" y="855" width="80" height="80" as="geometry" />
        </mxCell>
        <mxCell id="MvFeTqcAGGcagMa9E8rT-10" style="edgeStyle=orthogonalEdgeStyle;curved=1;rounded=0;orthogonalLoop=1;jettySize=auto;html=1;exitX=1;exitY=0.5;exitDx=0;exitDy=0;entryX=0;entryY=0.75;entryDx=0;entryDy=0;endArrow=none;endFill=0;" parent="1" source="MvFeTqcAGGcagMa9E8rT-9" target="_CHvoFrD6mSaw10JFjYY-11" edge="1">
          <mxGeometry relative="1" as="geometry" />
        </mxCell>
        <mxCell id="MvFeTqcAGGcagMa9E8rT-9" value="quantity" style="ellipse;whiteSpace=wrap;html=1;" parent="1" vertex="1">
          <mxGeometry x="-530" y="750" width="100" height="65" as="geometry" />
        </mxCell>
        <mxCell id="MvFeTqcAGGcagMa9E8rT-12" style="edgeStyle=orthogonalEdgeStyle;rounded=0;orthogonalLoop=1;jettySize=auto;html=1;exitX=0.5;exitY=0;exitDx=0;exitDy=0;entryX=0.5;entryY=1;entryDx=0;entryDy=0;endArrow=none;endFill=0;curved=1;" parent="1" source="MvFeTqcAGGcagMa9E8rT-11" target="_CHvoFrD6mSaw10JFjYY-64" edge="1">
          <mxGeometry relative="1" as="geometry" />
        </mxCell>
        <mxCell id="MvFeTqcAGGcagMa9E8rT-11" value="longUnit" style="ellipse;whiteSpace=wrap;html=1;" parent="1" vertex="1">
          <mxGeometry x="-233.5" y="1095" width="87" height="60" as="geometry" />
        </mxCell>
        <mxCell id="U7rDwr9C1dg0-C28zRSU-1" value="visibility" style="ellipse;whiteSpace=wrap;html=1;" parent="1" vertex="1">
          <mxGeometry x="-530" y="820" width="100" height="65" as="geometry" />
        </mxCell>
        <mxCell id="iVEvBNRrYqR37VKJTD1p-2" style="edgeStyle=orthogonalEdgeStyle;curved=1;rounded=0;orthogonalLoop=1;jettySize=auto;html=1;exitX=1;exitY=0.5;exitDx=0;exitDy=0;endArrow=none;endFill=0;" edge="1" parent="1" source="iVEvBNRrYqR37VKJTD1p-1">
          <mxGeometry relative="1" as="geometry">
            <mxPoint x="-300" y="250" as="targetPoint" />
          </mxGeometry>
        </mxCell>
        <mxCell id="iVEvBNRrYqR37VKJTD1p-1" value="lastname" style="ellipse;whiteSpace=wrap;html=1;" vertex="1" parent="1">
          <mxGeometry x="-467.5" y="310" width="90" height="60" as="geometry" />
        </mxCell>
      </root>
    </mxGraphModel>
  </diagram>
</mxfile>
